<?xml version="1.0" encoding="UTF-8"?>
<svg id="Layer_1" xmlns="http://www.w3.org/2000/svg" version="1.1" viewBox="0 0 1080 1080">
  <!-- Generator: Adobe Illustrator 29.6.1, SVG Export Plug-In . SVG Version: 2.1.1 Build 9)  -->
  <defs>
    <style>
      .st0 {
        fill: #606060;
      }
    </style>
  </defs>
  <path class="st0" d="M738.98,559.7l332.86,332.86c10.88,10.88,10.88,28.52,0,39.4l-139.88,139.88c-10.88,10.88-28.52,10.88-39.4,0l-332.86-332.86c-10.88-10.88-28.52-10.88-39.4,0l-332.86,332.86c-10.88,10.88-28.52,10.88-39.4,0L8.16,931.96c-10.88-10.88-10.88-28.52,0-39.4l332.86-332.86c10.88-10.88,10.88-28.52,0-39.4L8.16,187.44c-10.88-10.88-10.88-28.52,0-39.4L148.04,8.16c10.88-10.88,28.52-10.88,39.4,0l332.86,332.86c10.88,10.88,28.52,10.88,39.4,0L892.56,8.16c10.88-10.88,28.52-10.88,39.4,0l139.88,139.88c10.88,10.88,10.88,28.52,0,39.4l-332.86,332.86c-10.88,10.88-10.88,28.52,0,39.4Z"/>
</svg>